<svg width="45" height="54" viewBox="0 0 45 54" fill="none" xmlns="http://www.w3.org/2000/svg">
<circle cx="22.7925" cy="31.2664" r="21.9888" fill="#FE9E66"/>
<mask id="mask0_2_252" style="mask-type:alpha" maskUnits="userSpaceOnUse" x="0" y="9" width="45" height="45">
<circle cx="22.7925" cy="31.2664" r="21.9888" fill="#23254B"/>
</mask>
<g mask="url(#mask0_2_252)">
<rect x="8.06372" y="1.55371" width="29.4574" height="54.9515" rx="3.25" fill="white" stroke="#161C3E" stroke-width="1.5"/>
</g>
<path d="M34.2684 0.803711H11.3237C9.11459 0.803711 7.32373 2.59457 7.32373 4.80371V28.5211C7.32373 30.7302 9.11459 32.5211 11.3237 32.5211H34.2684C36.4775 32.5211 38.2684 30.7302 38.2684 28.5211V4.80371C38.2684 2.59457 36.4775 0.803711 34.2684 0.803711Z" fill="#C6CAD9"/>
<path d="M37.517 32.5211V4.80371C37.517 2.59457 35.7261 0.803711 33.517 0.803711H12.0696C9.86044 0.803711 8.06958 2.59457 8.06958 4.80371V32.5211" stroke="#161C3E" stroke-width="1.5"/>
<rect x="13.0107" y="8.77588" width="19.5706" height="6.19434" rx="1" fill="#F9F9F9"/>
<rect x="13.0107" y="17.3518" width="19.5706" height="2.2835" rx="1" fill="#F9F9F9"/>
<rect x="13.0107" y="21.2766" width="19.5706" height="2.2835" rx="1" fill="#F9F9F9"/>
<rect x="13.0107" y="27.2544" width="9.30791" height="1.57665" rx="0.788325" fill="#F9F9F9"/>
<rect x="13.0107" y="30.1436" width="21.7212" height="1.57665" rx="0.788325" fill="#F9F9F9"/>
</svg>
