<svg width="164" height="178" viewBox="0 0 164 178" fill="none" xmlns="http://www.w3.org/2000/svg">
<path d="M131.382 0C113.92 0 99.7146 15.5256 99.7146 34.6111V49.4444H63.5233V34.6111C63.5233 15.5256 49.3182 0 31.8559 0C14.3936 0 0.188477 15.5256 0.188477 34.6111C0.188477 53.6967 14.3936 69.2222 31.8559 69.2222H45.4276V108.778H31.8559C14.3936 108.778 0.188477 124.303 0.188477 143.389C0.188477 162.474 14.3936 178 31.8559 178C49.3182 178 63.5233 162.474 63.5233 143.389V128.556H99.7146V143.389C99.7146 162.474 113.92 178 131.382 178C148.844 178 163.049 162.474 163.049 143.389C163.049 124.303 148.844 108.778 131.382 108.778H117.81V69.2222H131.382C148.844 69.2222 163.049 53.6967 163.049 34.6111C163.049 15.5256 148.844 0 131.382 0ZM117.81 49.4444V34.6111C117.81 26.4033 123.872 19.7778 131.382 19.7778C138.892 19.7778 144.954 26.4033 144.954 34.6111C144.954 42.8189 138.892 49.4444 131.382 49.4444H117.81ZM31.8559 49.4444C24.3462 49.4444 18.2841 42.8189 18.2841 34.6111C18.2841 26.4033 24.3462 19.7778 31.8559 19.7778C39.3656 19.7778 45.4276 26.4033 45.4276 34.6111V49.4444H31.8559ZM63.5233 108.778V69.2222H99.7146V108.778H63.5233ZM131.382 158.222C123.872 158.222 117.81 151.597 117.81 143.389V128.556H131.382C138.892 128.556 144.954 135.181 144.954 143.389C144.954 151.597 138.892 158.222 131.382 158.222ZM31.8559 158.222C24.3462 158.222 18.2841 151.597 18.2841 143.389C18.2841 135.181 24.3462 128.556 31.8559 128.556H45.4276V143.389C45.4276 151.597 39.3656 158.222 31.8559 158.222Z" fill="#D8D8D8"/>
</svg>
